<svg width="509" height="323" viewBox="0 0 509 323" fill="none" xmlns="http://www.w3.org/2000/svg">
<g clip-path="url(#clip0)">
<path d="M256.493 311.549C339.064 311.549 406.002 241.806 406.002 155.775C406.002 69.7426 339.064 0 256.493 0C173.921 0 106.984 69.7426 106.984 155.775C106.984 241.806 173.921 311.549 256.493 311.549Z" fill="#F2F2F2"/>
<path d="M427.87 36.2834L418.728 60.2712C420.496 68.6151 422.227 78.0246 423.616 88.0446L439.894 52.5502L440.161 52.9781C436.432 46.2626 432.191 40.4688 427.589 35.8881L427.87 36.2834Z" fill="#6C63FF"/>
<path d="M418.415 58.808L427.272 35.5718C422.079 30.4844 416.433 26.9421 410.543 25.3787C410.237 25.2974 409.932 25.2263 409.627 25.1563C410.338 27.3584 414.425 40.3122 418.415 58.808Z" fill="#6C63FF"/>
<path d="M455.824 110.268L456.029 110.8C455.811 107.178 455.468 103.595 455 100.051L426.701 136.901L426.598 136.662C426.537 138.836 426.445 140.981 426.323 143.097L455.824 110.268Z" fill="#6C63FF"/>
<path d="M450.658 79.2704L450.896 79.7592C448.412 70.5886 444.895 61.7567 440.417 53.4482L423.828 89.6187C425.089 99.0162 425.932 108.084 426.359 116.823L450.658 79.2704Z" fill="#6C63FF"/>
<path d="M371.994 55.8233C369.886 62.245 368.406 68.8723 367.576 75.6041L425.328 110.758C424.812 103.185 424.029 95.9404 423.123 89.2456L371.932 56.3924L371.994 55.8233Z" fill="#6C63FF"/>
<path d="M366.813 83.4588L366.866 82.8863L425.713 117.554C425.63 115.694 425.529 113.85 425.412 112.023L367.447 76.7392L367.503 76.1675C367.209 78.5396 366.979 80.9701 366.813 83.4588Z" fill="#6C63FF"/>
<path d="M454.688 98.856L454.91 99.369C454.039 92.9499 452.754 86.5994 451.062 80.3607L426.435 118.421C426.687 124.25 426.751 129.909 426.625 135.399L454.688 98.856Z" fill="#6C63FF"/>
<path d="M423.407 167.095C421.059 179.235 417.458 190.061 412.635 199.448C419.379 193.457 446.154 168.085 454.078 136.389L423.407 167.095Z" fill="#6C63FF"/>
<path d="M368.389 110.991C369.651 117.078 371.302 123.071 373.333 128.928L373.425 128.308L422.879 165.786C424.132 158.98 424.992 152.101 425.454 145.187L368.389 110.991Z" fill="#6C63FF"/>
<path d="M417.777 58.969C413.455 38.9589 409.027 25.5094 408.963 25.3166L409.24 25.0692C400.192 23.1315 391.868 26.2085 385.016 33.1187L417.777 58.969Z" fill="#6C63FF"/>
<path d="M426.219 144.733C426.177 145.389 426.137 146.048 426.088 146.698C425.633 152.93 424.852 159.133 423.75 165.277L454.131 134.862L454.32 135.389C455.67 129.796 456.335 124.048 456.299 118.282C456.275 116.016 456.199 113.76 456.072 111.513L426.219 144.733Z" fill="#6C63FF"/>
<path d="M422.939 87.9102C421.559 78.0051 419.846 68.7071 418.096 60.4606L384.584 34.017L384.671 33.4661C379.555 38.7602 375.281 46.2147 372.165 55.3245L422.939 87.9102Z" fill="#6C63FF"/>
<path d="M422.675 166.866L373.583 129.662C385.75 164.788 409.478 198.534 410.998 200.676C416.621 190.392 420.345 178.859 422.675 166.866Z" fill="#6C63FF"/>
<path d="M425.506 144.006L425.534 143.975C426.045 135.592 426.122 127.187 425.765 118.797L366.774 84.0435C366.564 87.4163 366.476 90.8842 366.51 94.4472C366.601 99.543 367.138 104.62 368.115 109.614L425.506 144.006Z" fill="#6C63FF"/>
<path d="M508.569 169.79L486.843 182.189C483.097 189.791 478.67 198.188 473.606 206.828L507.872 190.309L507.815 190.815C509.054 183.165 509.335 175.884 508.594 169.298L508.569 169.79Z" fill="#6C63FF"/>
<path d="M487.498 180.854L508.543 168.844C507.658 161.474 505.478 154.994 501.899 149.876C501.713 149.61 501.521 149.352 501.329 149.096C500.529 151.264 495.747 163.958 487.498 180.854Z" fill="#6C63FF"/>
<path d="M484.808 245.348L484.64 245.894C486.689 242.96 488.619 239.972 490.428 236.932L446.074 246.507L446.141 246.254C444.763 247.889 443.379 249.48 441.99 251.028L484.808 245.348Z" fill="#6C63FF"/>
<path d="M499.805 218.041L499.689 218.576C503.39 209.862 506.087 200.723 507.725 191.348L472.806 208.182C468.024 216.257 463.123 223.802 458.102 230.816L499.805 218.041Z" fill="#6C63FF"/>
<path d="M453.572 147.707C448.017 151.252 442.82 155.372 438.061 160.006L461.021 225.46C465.258 219.284 469.091 213.184 472.491 207.425L453.176 148.104L453.572 147.707Z" fill="#6C63FF"/>
<path d="M432.665 165.549L433.056 165.143L457.157 230.95C458.231 229.462 459.283 227.975 460.311 226.49L437.266 160.795L437.66 160.392C435.981 162.023 434.316 163.742 432.665 165.549Z" fill="#6C63FF"/>
<path d="M490.919 235.804L490.776 236.346C494.034 230.824 496.932 225.078 499.448 219.149L457.181 232.097C453.808 236.754 450.392 241.155 446.935 245.3L490.919 235.804Z" fill="#6C63FF"/>
<path d="M425.054 267.574C415.814 275.364 406.414 281.308 396.952 285.333C405.814 285.201 441.967 283.452 467.474 264.307L425.054 267.574Z" fill="#6C63FF"/>
<path d="M417.024 187.8C414.269 193.327 411.873 199.04 409.851 204.901L410.302 204.484L425.448 266.214C430.58 261.804 435.453 257.078 440.041 252.061L417.024 187.8Z" fill="#6C63FF"/>
<path d="M486.908 180.554C495.829 162.271 500.652 148.97 500.721 148.779L501.086 148.772C495.303 141.267 487.009 138.105 477.501 138.874L486.908 180.554Z" fill="#6C63FF"/>
<path d="M440.908 252.219C440.474 252.696 440.04 253.177 439.605 253.645C435.439 258.143 431.041 262.401 426.431 266.401L468.448 263.164L468.272 263.696C472.735 260.286 476.766 256.301 480.268 251.835C481.636 250.074 482.959 248.287 484.237 246.472L440.908 252.219Z" fill="#6C63FF"/>
<path d="M473.166 206.275C478.167 197.729 482.54 189.429 486.24 181.915L476.617 139.278L477.022 138.912C469.84 139.59 461.985 142.491 454.009 147.436L473.166 206.275Z" fill="#6C63FF"/>
<path d="M424.631 266.91L409.595 205.632C397.463 240.772 395.081 282.531 394.939 285.19C405.565 281.006 415.494 274.599 424.631 266.91Z" fill="#6C63FF"/>
<path d="M440.804 251.185L440.845 251.18C446.37 245.063 451.575 238.641 456.436 231.942L432.276 165.973C430.05 168.431 427.859 171.043 425.704 173.81C422.655 177.796 419.961 182.062 417.656 186.558L440.804 251.185Z" fill="#6C63FF"/>
<path d="M362.642 131.07L361.063 156.828C365.221 164.193 369.658 172.585 373.951 181.667L378.903 142.668L379.283 142.989C373.744 137.804 367.993 133.659 362.257 130.785L362.642 131.07Z" fill="#6C63FF"/>
<path d="M360.331 155.537L361.861 130.586C355.413 127.421 348.993 125.87 342.928 126.28C342.612 126.301 342.301 126.332 341.99 126.363C343.319 128.229 351.05 139.232 360.331 155.537Z" fill="#6C63FF"/>
<path d="M411.175 192.429L411.528 192.869C410.246 189.495 408.857 186.198 407.361 182.978L391.38 227.137L391.21 226.943C391.797 229.03 392.346 231.1 392.858 233.151L411.175 192.429Z" fill="#6C63FF"/>
<path d="M397.067 164.613L397.438 165.002C392.355 157.08 386.39 149.813 379.667 143.354L374.621 183.095C378.607 191.627 382.1 199.979 385.098 208.153L397.067 164.613Z" fill="#6C63FF"/>
<path d="M315.298 167.648C315.199 174.434 315.757 181.214 316.965 187.883L382.318 202.716C379.58 195.681 376.687 189.043 373.838 182.968L315.408 168.209L315.298 167.648Z" fill="#6C63FF"/>
<path d="M318.57 195.599L318.45 195.037L384.7 209.056C384.069 207.314 383.427 205.592 382.773 203.892L317.179 189.004L317.063 188.442C317.487 190.793 317.99 193.178 318.57 195.599Z" fill="#6C63FF"/>
<path d="M406.71 181.942L407.072 182.359C404.34 176.534 401.233 170.909 397.774 165.52L385.644 209.648C387.613 215.111 389.352 220.472 390.861 225.733L406.71 181.942Z" fill="#6C63FF"/>
<path d="M397.205 256.914C398.573 269.215 398.36 280.67 396.558 291.151C401.195 283.281 419.131 250.529 417.265 217.834L397.205 256.914Z" fill="#6C63FF"/>
<path d="M328.236 221.275C331.242 226.658 334.59 231.825 338.259 236.742L338.162 236.123L396.313 255.839C395.486 248.962 394.263 242.143 392.651 235.42L328.236 221.275Z" fill="#6C63FF"/>
<path d="M359.772 155.896C349.726 138.257 341.525 126.892 341.407 126.729L341.597 126.405C332.417 127.476 325.414 133.083 320.947 141.862L359.772 155.896Z" fill="#6C63FF"/>
<path d="M393.244 234.741C393.398 235.379 393.556 236.018 393.702 236.652C395.118 242.726 396.216 248.876 396.99 255.074L416.86 216.364L417.196 216.804C416.821 211.051 415.749 205.37 414.003 199.898C413.308 197.751 412.567 195.63 411.78 193.534L393.244 234.741Z" fill="#6C63FF"/>
<path d="M373.267 181.757C369.017 172.781 364.629 164.49 360.519 157.211L320.803 142.855L320.722 142.303C317.427 148.986 315.574 157.452 315.313 167.119L373.267 181.757Z" fill="#6C63FF"/>
<path d="M396.44 256.931L338.714 237.359C360.706 266.847 393.284 291.298 395.364 292.846C397.661 281.255 397.782 269.088 396.44 256.931Z" fill="#6C63FF"/>
<path d="M392.35 234.279L392.368 234.24C390.367 226.104 387.947 218.086 385.118 210.221L318.706 196.168C319.506 199.443 320.451 202.769 321.541 206.147C323.14 210.964 325.156 215.619 327.567 220.054L392.35 234.279Z" fill="#6C63FF"/>
<path d="M332.06 283.186C377.26 282.63 422.457 282.949 467.653 284.141C471.541 284.244 475.576 284.376 479.009 285.449C482.443 286.521 485.085 288.823 484.146 291.034C466.503 291.578 448.841 291.746 431.162 291.538C427.312 293.503 423.085 296.462 425.451 299.112C427.088 300.946 431.13 301.492 434.664 301.496C441.066 301.504 447.493 300.409 453.8 301.051C460.107 301.694 466.4 305.15 464.552 308.738C463.149 311.462 457.827 312.811 452.983 313.052C448.139 313.293 443.179 312.792 438.445 313.437C433.945 314.05 430.047 315.644 425.836 316.756C419.194 318.51 411.83 319.052 404.586 319.513C348.958 323.054 292.869 323.026 236.913 322.994C214.26 322.981 191.299 322.945 169.423 319.5C156.954 317.536 145.005 314.486 132.378 312.903C117.296 311.013 101.708 311.269 86.2843 311.326C59.2072 311.425 32.1528 310.882 5.12135 309.695C3.10977 309.607 0.640607 309.307 0.0977421 308.17C-0.535809 306.843 2.03538 305.807 4.20876 305.277C16.524 302.307 29.0462 300.361 41.6572 299.457C48.044 298.989 54.6254 298.751 60.4996 297.211C66.3738 295.67 71.5056 292.44 71.4505 288.672C71.4337 287.523 70.9682 286.293 71.8889 285.278C73.1114 283.93 76.1193 283.621 78.7144 283.474C107.483 281.844 136.409 281.164 165.309 281.438C175.474 281.534 185.682 281.747 195.776 281.033C204.046 280.449 212.147 279.248 220.298 278.241C231.239 276.888 278.853 269.882 285.798 275.567C290.998 279.823 280.263 280.741 294.209 282.478C306.351 283.99 319.745 283.337 332.06 283.186Z" fill="#F2F2F2"/>
<path d="M307.075 135.253C321.908 135.253 333.933 122.725 333.933 107.27C333.933 91.8151 321.908 79.2865 307.075 79.2865C292.242 79.2865 280.217 91.8151 280.217 107.27C280.217 122.725 292.242 135.253 307.075 135.253Z" fill="#2F2E41"/>
<path d="M336.171 98.4085C351.005 98.4085 363.029 85.8799 363.029 70.425C363.029 54.9702 351.005 42.4416 336.171 42.4416C321.338 42.4416 309.313 54.9702 309.313 70.425C309.313 85.8799 321.338 98.4085 336.171 98.4085Z" fill="#2F2E41"/>
<path d="M359.338 93.5972C355.862 96.215 351.834 97.9273 347.593 98.5909C343.351 99.2545 339.019 98.85 334.958 97.4114C330.897 95.9727 327.226 93.5417 324.252 90.3218C321.277 87.1018 319.087 83.1866 317.862 78.9035C318.326 82.7418 319.548 86.4383 321.451 89.7597C323.355 93.0811 325.899 95.9552 328.922 98.2006C331.945 100.446 335.383 102.014 339.017 102.805C342.652 103.597 346.404 103.594 350.038 102.798C353.671 102.002 357.107 100.43 360.128 98.1813C363.148 95.9322 365.689 93.0549 367.589 89.7312C369.489 86.4074 370.706 82.7094 371.165 78.8706C371.624 75.0317 371.314 71.1354 370.255 67.4277C370.856 72.409 370.16 77.4672 368.24 82.0717C366.319 86.6762 363.244 90.6572 359.338 93.5972Z" fill="#2F2E41"/>
<path d="M300.137 141.083C312.25 141.083 322.071 130.852 322.071 118.23C322.071 105.609 312.25 95.377 300.137 95.377C288.023 95.377 278.203 105.609 278.203 118.23C278.203 130.852 288.023 141.083 300.137 141.083Z" fill="#A0616A"/>
<path d="M292.527 136.886C292.527 136.886 301.48 150.877 300.137 156.941C300.137 156.941 294.318 159.739 294.318 160.672C294.318 161.604 288.946 170.466 288.946 170.466L282.679 179.327L279.994 190.987H292.975L307.299 179.327L321.176 163.47C321.176 163.47 330.576 158.806 335.5 162.537L338.186 164.869C338.186 164.869 328.786 151.81 324.309 149.012C324.309 149.012 316.252 138.751 317.147 128.491L292.527 136.886Z" fill="#A0616A"/>
<path d="M296.109 156.474C296.109 156.474 287.156 161.604 283.575 171.399C279.994 181.193 263.879 213.84 263.879 213.84C263.879 213.84 262.536 234.828 263.431 235.761C264.327 236.693 274.622 226.433 276.413 223.634C278.203 220.836 285.365 187.256 285.365 187.256L297.004 167.668L299.242 156.474H296.109Z" fill="#A0616A"/>
<path d="M267.908 215.239L263.879 213.84C263.879 213.84 239.259 197.983 237.916 190.987C236.573 183.991 216.878 160.672 216.43 173.264C215.982 185.857 230.754 199.848 230.754 199.848C230.754 199.848 262.984 246.954 264.774 233.429L267.908 215.239Z" fill="#A0616A"/>
<path d="M308.642 183.058C308.642 183.058 309.09 196.117 326.547 200.781C326.547 200.781 344.453 225.966 346.243 237.16C348.034 248.353 395.035 305.719 395.035 305.719C395.035 305.719 438.455 311.316 438.455 305.719C438.455 300.123 402.197 295.459 402.197 295.459C402.197 295.459 364.148 236.693 362.358 228.765C360.567 220.836 343.557 162.071 335.5 162.537C335.5 162.537 327.89 158.806 323.414 161.604C318.938 164.403 308.642 183.058 308.642 183.058Z" fill="#A0616A"/>
<path d="M256.269 235.761C256.269 235.761 224.935 191.92 218.221 189.121C211.506 186.323 203.001 184.458 198.077 190.987C193.153 197.517 134.961 274.005 134.961 274.005C134.961 274.005 114.37 295.925 104.074 291.727C104.074 291.727 98.7028 296.391 111.237 297.324C123.77 298.257 135.409 294.526 135.409 294.526C135.409 294.526 143.018 295.925 148.39 297.324C153.762 298.723 160.476 299.19 160.028 295.459L158.238 280.534C158.238 280.534 204.344 240.891 205.687 224.101C205.687 224.101 204.792 216.172 205.687 217.105C206.582 218.038 225.383 239.025 233.888 243.689C242.393 248.353 263.431 254.883 263.431 254.883L256.269 235.761Z" fill="#A0616A"/>
<path opacity="0.1" d="M256.269 235.761C256.269 235.761 224.935 191.92 218.221 189.121C211.506 186.323 203.001 184.458 198.077 190.987C193.153 197.517 134.961 274.005 134.961 274.005C134.961 274.005 114.37 295.925 104.074 291.727C104.074 291.727 98.7028 296.391 111.237 297.324C123.77 298.257 135.409 294.526 135.409 294.526C135.409 294.526 143.018 295.925 148.39 297.324C153.762 298.723 160.476 299.19 160.028 295.459L158.238 280.534C158.238 280.534 204.344 240.891 205.687 224.101C205.687 224.101 204.792 216.172 205.687 217.105C206.582 218.038 225.383 239.025 233.888 243.689C242.393 248.353 263.431 254.883 263.431 254.883L256.269 235.761Z" fill="black"/>
<path d="M261.193 241.824C261.193 241.824 220.011 225.5 214.639 221.769C209.268 218.038 190.02 210.575 180.172 218.971C170.324 227.366 122.427 266.076 106.312 269.807C90.1977 273.538 62.4446 282.4 62.4446 282.4C62.4446 282.4 44.5393 283.799 63.7874 291.728C63.7874 291.728 87.5119 294.059 91.5406 297.791C95.5693 301.522 108.998 306.186 109.893 300.123C110.789 294.059 113.475 286.131 118.398 285.198C123.322 284.265 182.41 267.475 191.362 249.286C191.362 249.286 211.506 260.946 224.04 274.471C236.573 287.996 266.117 295.459 266.117 295.459L261.193 241.824Z" fill="#A0616A"/>
<path d="M275.965 226.899C275.965 226.899 256.343 232.333 254.739 230.316C253.136 228.298 244.631 239.492 252.688 261.878C260.745 284.265 258.955 294.526 263.431 297.791C267.908 301.055 288.946 295.925 295.213 298.257C301.48 300.589 309.537 302.454 312.223 288.929C314.909 275.404 321.623 251.618 320.28 248.353C318.938 245.088 311.775 237.626 311.775 237.626L297.004 229.698L275.965 226.899Z" fill="#3F3D56"/>
<path d="M343.781 174.43C343.781 174.43 340.665 165.335 334.88 163.63C334.391 163.491 333.908 163.327 333.436 163.137C331.262 162.238 324.634 160.275 319.833 167.201C314.014 175.596 308.642 185.39 313.118 190.987C317.595 196.584 326.547 199.849 326.547 199.849L333.262 208.71C333.262 208.71 319.833 233.895 319.833 245.555C319.833 245.555 319.385 250.219 311.775 241.824C304.166 233.429 273.024 227.624 273.024 227.624C273.024 227.624 279.546 218.504 274.622 214.307C269.698 210.109 265.19 193.39 276.844 186.825L296.78 156.241L300.361 156.707C300.361 156.707 295.661 161.138 295.213 163.47C294.765 165.802 276.86 182.126 284.022 184.924C291.184 187.722 302.823 181.659 307.747 174.663C310.455 170.816 314.246 165.557 319.047 162.224C321.511 160.548 324.357 159.579 327.296 159.415C330.235 159.25 333.164 159.896 335.787 161.288L337.29 162.071C340.216 164.205 342.512 167.148 343.919 170.568L344.452 171.865L343.781 174.43Z" fill="#2F2E41"/>
<path d="M314.238 132.455C325.115 132.455 333.934 123.267 333.934 111.934C333.934 100.6 325.115 91.4127 314.238 91.4127C303.36 91.4127 294.542 100.6 294.542 111.934C294.542 123.267 303.36 132.455 314.238 132.455Z" fill="#2F2E41"/>
<path d="M297.675 118.463C307.316 118.463 315.133 112.095 315.133 104.238C315.133 96.3822 307.316 90.0135 297.675 90.0135C288.033 90.0135 280.217 96.3822 280.217 104.238C280.217 112.095 288.033 118.463 297.675 118.463Z" fill="#2F2E41"/>
<path d="M304.166 131.989C305.773 131.989 307.076 129.587 307.076 126.625C307.076 123.663 305.773 121.262 304.166 121.262C302.559 121.262 301.256 123.663 301.256 126.625C301.256 129.587 302.559 131.989 304.166 131.989Z" fill="#A0616A"/>
<path d="M309.089 79.4543V116.598H298.794V79.4543C298.794 78.7913 299.047 78.1555 299.497 77.6867C299.947 77.2179 300.557 76.9545 301.193 76.9545H306.69C307.327 76.9545 307.937 77.2179 308.387 77.6867C308.837 78.1555 309.089 78.7913 309.089 79.4543Z" fill="#FF6584"/>
<path d="M303.942 135.72C310.122 135.72 315.133 130.499 315.133 124.06C315.133 117.62 310.122 112.4 303.942 112.4C297.761 112.4 292.751 117.62 292.751 124.06C292.751 130.499 297.761 135.72 303.942 135.72Z" fill="#6C63FF"/>
<path d="M303.942 129.19C306.661 129.19 308.866 126.893 308.866 124.06C308.866 121.227 306.661 118.93 303.942 118.93C301.223 118.93 299.018 121.227 299.018 124.06C299.018 126.893 301.223 129.19 303.942 129.19Z" fill="#F2F2F2"/>
<path d="M303.942 125.459C304.684 125.459 305.285 124.833 305.285 124.06C305.285 123.287 304.684 122.661 303.942 122.661C303.2 122.661 302.599 123.287 302.599 124.06C302.599 124.833 303.2 125.459 303.942 125.459Z" fill="#FF6584"/>
<path opacity="0.1" d="M309.089 79.4543V81.152H298.794V79.4543C298.794 78.7914 299.047 78.1555 299.497 77.6867C299.947 77.2179 300.557 76.9545 301.193 76.9545H306.69C307.327 76.9545 307.937 77.2179 308.387 77.6867C308.837 78.1555 309.089 78.7914 309.089 79.4543Z" fill="black"/>
<path d="M189.507 171.467L215.863 144.006C216.32 143.53 216.862 143.153 217.458 142.895C218.055 142.638 218.694 142.505 219.34 142.505C219.985 142.505 220.625 142.638 221.221 142.895C221.818 143.153 222.36 143.53 222.816 144.006L246.526 168.709C247.448 169.67 247.966 170.973 247.966 172.331C247.966 173.69 247.448 174.993 246.526 175.954L221.9 201.611C221.022 202.526 219.844 203.061 218.603 203.108C217.362 203.156 216.15 202.712 215.21 201.866L189.769 178.965C189.258 178.505 188.843 177.94 188.551 177.305C188.258 176.67 188.095 175.979 188.07 175.276C188.046 174.572 188.16 173.871 188.408 173.215C188.655 172.56 189.029 171.965 189.507 171.467Z" fill="#2F2E41"/>
<path d="M196.958 175.829L220.011 151.81L239.035 171.632L216.878 194.718L196.958 175.829Z" fill="#F2F2F2"/>
<path d="M218.444 184.509C224.529 184.509 229.461 179.37 229.461 173.031C229.461 166.692 224.529 161.553 218.444 161.553C212.36 161.553 207.428 166.692 207.428 173.031C207.428 179.37 212.36 184.509 218.444 184.509Z" fill="#6C63FF"/>
<path opacity="0.1" d="M213.541 182.814C211.698 181.01 210.507 178.6 210.168 175.989C209.829 173.378 210.362 170.725 211.678 168.475C212.994 166.226 215.013 164.516 217.396 163.634C219.778 162.751 222.38 162.75 224.764 163.63C223.476 162.69 222.01 162.049 220.465 161.748C218.919 161.448 217.33 161.496 215.803 161.888C214.277 162.281 212.849 163.009 211.616 164.025C210.382 165.04 209.371 166.319 208.651 167.775C207.931 169.231 207.519 170.831 207.442 172.467C207.364 174.103 207.624 175.737 208.203 177.26C208.782 178.783 209.668 180.159 210.8 181.296C211.932 182.432 213.284 183.304 214.766 183.851C214.335 183.536 213.925 183.189 213.541 182.814Z" fill="black"/>
<path d="M223.86 170.75C225.174 172.036 225.244 176.666 223.238 178.891C221.232 181.115 217.91 180.091 216.596 178.805C215.282 177.519 216.474 176.457 218.48 174.233C220.486 172.008 222.547 169.464 223.86 170.75Z" fill="#F2F2F2"/>
<path d="M212.677 176.619C214.48 176.619 215.941 175.096 215.941 173.218C215.941 171.34 214.48 169.817 212.677 169.817C210.874 169.817 209.413 171.34 209.413 173.218C209.413 175.096 210.874 176.619 212.677 176.619Z" fill="#2F2E41"/>
<path d="M218.544 170.113C220.347 170.113 221.809 168.59 221.809 166.712C221.809 164.834 220.347 163.311 218.544 163.311C216.742 163.311 215.28 164.834 215.28 166.712C215.28 168.59 216.742 170.113 218.544 170.113Z" fill="#2F2E41"/>
<path d="M212.677 174.068C213.128 174.068 213.493 173.688 213.493 173.218C213.493 172.749 213.128 172.368 212.677 172.368C212.226 172.368 211.861 172.749 211.861 173.218C211.861 173.688 212.226 174.068 212.677 174.068Z" fill="#F2F2F2"/>
<path d="M212.326 171.549C212.551 171.549 212.734 171.359 212.734 171.124C212.734 170.889 212.551 170.699 212.326 170.699C212.1 170.699 211.917 170.889 211.917 171.124C211.917 171.359 212.1 171.549 212.326 171.549Z" fill="#F2F2F2"/>
<path d="M218.193 165.043C218.418 165.043 218.601 164.853 218.601 164.618C218.601 164.383 218.418 164.193 218.193 164.193C217.967 164.193 217.785 164.383 217.785 164.618C217.785 164.853 217.967 165.043 218.193 165.043Z" fill="#F2F2F2"/>
<path d="M218.544 167.562C218.995 167.562 219.36 167.182 219.36 166.712C219.36 166.242 218.995 165.862 218.544 165.862C218.093 165.862 217.728 166.242 217.728 166.712C217.728 167.182 218.093 167.562 218.544 167.562Z" fill="#F2F2F2"/>
</g>
<defs>
<clipPath id="clip0">
<rect width="509" height="323" fill="white"/>
</clipPath>
</defs>
</svg>
