<svg width="200" height="100" viewBox="0 0 200 100" fill="none" xmlns="http://www.w3.org/2000/svg">
<g clip-path="url(#clip0)">
<rect width="200" height="100" fill="white"/>
<rect width="200" height="100" fill="#6C63FF"/>
<path d="M59.2695 58.3184V51.4336H78.3711C78.3711 56.375 77.4727 60.291 75.6758 63.1816C73.8984 66.0723 71.3008 68.3477 67.8828 70.0078C64.4844 71.668 60.666 72.498 56.4277 72.498C49.0645 72.498 43.4102 70.5254 39.4648 66.5801C35.5391 62.6348 33.5762 57.625 33.5762 51.5508C33.5762 47.332 34.5527 43.6113 36.5059 40.3887C38.459 37.1465 41.0859 34.7051 44.3867 33.0645C47.6875 31.4238 51.2715 30.6035 55.1387 30.6035C60.6074 30.6035 64.8652 31.9316 67.9121 34.5879V31.248H74.8262V45.7207H67.9121C67.1895 43.2793 65.7539 41.3555 63.6055 39.9492C61.457 38.543 59.1523 37.8398 56.6914 37.8398C53.4492 37.8398 50.6855 38.9922 48.4004 41.2969C46.1152 43.582 44.9727 46.7559 44.9727 50.8184C44.9727 55.4668 46.1348 59.0117 48.459 61.4531C50.7832 63.875 53.6152 65.0859 56.9551 65.0859C59.416 65.0859 61.457 64.4902 63.0781 63.2988C64.6992 62.1074 65.8223 60.4473 66.4473 58.3184H59.2695Z" fill="#D19946"/>
<path d="M92.2812 57.7334V61H82.3057V57.7334H84.9277V50.1016H82.4668V46.8203H89.0732V50.4238C89.3271 49.3887 89.9033 48.4951 90.8018 47.7432C91.71 46.9814 92.7793 46.6006 94.0098 46.6006C94.2148 46.6006 94.459 46.6055 94.7422 46.6152V50.8926C93.5996 50.8926 92.667 51.0195 91.9443 51.2734C91.2217 51.5273 90.626 52.084 90.1572 52.9434C89.6885 53.8027 89.4541 54.8184 89.4541 55.9902V57.7334H92.2812Z" fill="white"/>
<g clip-path="url(#clip1)">
<path d="M115.5 28.1249C106.809 28.1249 99.75 35.1843 99.75 43.8749V49.4999H101.438V44.0718C101.438 36.1968 107.738 29.8125 115.5 29.8125C123.262 29.8125 129.562 36.1968 129.562 44.0718V49.4999H131.25V43.8749C131.25 35.1843 124.191 28.1249 115.5 28.1249Z" fill="#D19946"/>
<path d="M103.238 47.8124C100.059 47.8124 97.5 50.3436 97.5 53.4374C97.5 56.5311 100.059 59.0623 103.238 59.0623C105.15 59.0623 104.812 53.4374 104.812 53.4374C104.812 53.4374 105.15 47.8124 103.238 47.8124ZM127.566 47.8124C125.625 47.8124 125.934 53.4374 125.934 53.4374C125.934 53.4374 125.541 59.0623 127.566 59.0623C130.856 59.0623 133.5 56.5311 133.5 53.4374C133.5 50.3436 130.828 47.8124 127.566 47.8124Z" fill="#F1EDE7"/>
<path d="M127.594 59.0624C128.494 59.0624 129.365 58.8655 130.125 58.4999V48.3749C129.365 48.0374 128.494 47.8124 127.594 47.8124V59.0624ZM100.875 58.5561C101.606 58.8655 102.394 59.0624 103.237 59.0624C103.294 59.0624 103.35 59.0624 103.406 59.0342V47.8405L103.237 47.8124C102.394 47.8124 101.606 47.9812 100.875 48.3186V58.5561Z" fill="white"/>
<path d="M106.5 44.9999C104.644 44.9999 103.125 46.5187 103.125 48.375V58.5C103.125 60.3562 104.644 61.875 106.5 61.875C108.356 61.875 109.875 60.3562 109.875 58.5V48.3749C109.875 46.5186 108.356 44.9999 106.5 44.9999ZM124.5 44.9999C122.644 44.9999 121.125 46.5187 121.125 48.375V58.5C121.125 60.3562 122.644 61.875 124.5 61.875C126.356 61.875 127.875 60.3562 127.875 58.5V48.3749C127.875 46.5186 126.356 44.9999 124.5 44.9999Z" fill="#304AD3"/>
<path d="M109.875 58.4999V48.3749C109.875 46.5186 108.356 44.9998 106.5 44.9998V61.8748C108.356 61.8748 109.875 60.3561 109.875 58.4999ZM121.125 48.3749V58.4999C121.125 60.3561 122.644 61.8749 124.5 61.8749V44.9999C122.644 44.9999 121.125 46.5186 121.125 48.3749Z" fill="#6880FF"/>
</g>
<path d="M142.282 61.2051L137.492 50.1016H135.441V46.8203H144.04V50.1016H142.282L144.494 56.5469L147.102 50.1016H145.241V46.8203H152.756V50.1016H150.734L146.135 61.2051H142.282ZM164.431 56.7227L167.946 57.8506C166.472 60.165 164.167 61.3223 161.032 61.3223C158.532 61.3223 156.579 60.6631 155.173 59.3447C153.776 58.0264 153.078 56.293 153.078 54.1445C153.078 51.957 153.801 50.1309 155.246 48.666C156.691 47.2012 158.532 46.4688 160.769 46.4688C162.39 46.4688 163.791 46.8789 164.973 47.6992C166.154 48.5195 166.975 49.54 167.434 50.7607C167.893 51.9814 168.122 53.3438 168.122 54.8477H157.561C157.629 56.1367 158.034 57.0498 158.776 57.5869C159.528 58.124 160.319 58.3926 161.149 58.3926C162.233 58.3926 163.327 57.8359 164.431 56.7227ZM163.566 52.3281C163.459 51.5371 163.146 50.8633 162.629 50.3066C162.121 49.75 161.423 49.4717 160.534 49.4717C158.874 49.4717 157.907 50.4238 157.634 52.3281H163.566Z" fill="white"/>
<circle cx="73" cy="94" r="40" fill="#6C63FF"/>
</g>
<defs>
<clipPath id="clip0">
<rect width="200" height="100" fill="white"/>
</clipPath>
<clipPath id="clip1">
<rect width="36" height="36" fill="white" transform="translate(97.5 27)"/>
</clipPath>
</defs>
</svg>
