<svg width="52" height="24" viewBox="0 0 52 24" fill="none" xmlns="http://www.w3.org/2000/svg">
<path d="M10.6 16.225V19H0.0125002V0.924999H3.375V16.225H10.6ZM17.5291 5.975C18.4791 5.975 19.3416 6.12917 20.1166 6.4375C20.8999 6.74583 21.5666 7.18333 22.1166 7.75C22.6749 8.31667 23.1041 9.00833 23.4041 9.825C23.7041 10.6417 23.8541 11.5542 23.8541 12.5625C23.8541 13.5792 23.7041 14.4958 23.4041 15.3125C23.1041 16.1292 22.6749 16.825 22.1166 17.4C21.5666 17.975 20.8999 18.4167 20.1166 18.725C19.3416 19.0333 18.4791 19.1875 17.5291 19.1875C16.5708 19.1875 15.6999 19.0333 14.9166 18.725C14.1333 18.4167 13.4624 17.975 12.9041 17.4C12.3541 16.825 11.9249 16.1292 11.6166 15.3125C11.3166 14.4958 11.1666 13.5792 11.1666 12.5625C11.1666 11.5542 11.3166 10.6417 11.6166 9.825C11.9249 9.00833 12.3541 8.31667 12.9041 7.75C13.4624 7.18333 14.1333 6.74583 14.9166 6.4375C15.6999 6.12917 16.5708 5.975 17.5291 5.975ZM17.5291 16.8125C18.5958 16.8125 19.3833 16.4542 19.8916 15.7375C20.4083 15.0208 20.6666 13.9708 20.6666 12.5875C20.6666 11.2042 20.4083 10.15 19.8916 9.425C19.3833 8.7 18.5958 8.3375 17.5291 8.3375C16.4458 8.3375 15.6416 8.70417 15.1166 9.4375C14.5999 10.1625 14.3416 11.2125 14.3416 12.5875C14.3416 13.9625 14.5999 15.0125 15.1166 15.7375C15.6416 16.4542 16.4458 16.8125 17.5291 16.8125ZM30.7994 12.275C31.1827 12.275 31.5161 12.225 31.7994 12.125C32.0827 12.0167 32.3161 11.8708 32.4994 11.6875C32.6911 11.5042 32.8327 11.2833 32.9244 11.025C33.0244 10.7667 33.0744 10.4833 33.0744 10.175C33.0744 9.54167 32.8827 9.04167 32.4994 8.675C32.1244 8.3 31.5577 8.1125 30.7994 8.1125C30.0411 8.1125 29.4702 8.3 29.0869 8.675C28.7119 9.04167 28.5244 9.54167 28.5244 10.175C28.5244 10.475 28.5702 10.7542 28.6619 11.0125C28.7619 11.2708 28.9036 11.4958 29.0869 11.6875C29.2786 11.8708 29.5161 12.0167 29.7994 12.125C30.0911 12.225 30.4244 12.275 30.7994 12.275ZM34.2869 19.575C34.2869 19.325 34.2119 19.1208 34.0619 18.9625C33.9119 18.8042 33.7077 18.6833 33.4494 18.6C33.1911 18.5083 32.8869 18.4417 32.5369 18.4C32.1952 18.3583 31.8286 18.3292 31.4369 18.3125C31.0536 18.2875 30.6536 18.2667 30.2369 18.25C29.8286 18.2333 29.4286 18.2 29.0369 18.15C28.6952 18.3417 28.4161 18.5667 28.1994 18.825C27.9911 19.0833 27.8869 19.3833 27.8869 19.725C27.8869 19.95 27.9411 20.1583 28.0494 20.35C28.1661 20.55 28.3452 20.7208 28.5869 20.8625C28.8369 21.0042 29.1577 21.1125 29.5494 21.1875C29.9411 21.2708 30.4202 21.3125 30.9869 21.3125C31.5619 21.3125 32.0577 21.2667 32.4744 21.175C32.8911 21.0917 33.2327 20.9708 33.4994 20.8125C33.7744 20.6625 33.9744 20.4792 34.0994 20.2625C34.2244 20.0542 34.2869 19.825 34.2869 19.575ZM37.3619 6.6125V7.7625C37.3619 8.12917 37.1411 8.35417 36.6994 8.4375L35.5494 8.65C35.7244 9.09167 35.8119 9.575 35.8119 10.1C35.8119 10.7333 35.6827 11.3083 35.4244 11.825C35.1744 12.3333 34.8244 12.7667 34.3744 13.125C33.9244 13.4833 33.3911 13.7625 32.7744 13.9625C32.1661 14.1542 31.5077 14.25 30.7994 14.25C30.5494 14.25 30.3077 14.2375 30.0744 14.2125C29.8411 14.1875 29.6119 14.1542 29.3869 14.1125C28.9869 14.3542 28.7869 14.625 28.7869 14.925C28.7869 15.1833 28.9036 15.375 29.1369 15.5C29.3786 15.6167 29.6952 15.7 30.0869 15.75C30.4786 15.8 30.9244 15.8333 31.4244 15.85C31.9244 15.8583 32.4369 15.8833 32.9619 15.925C33.4869 15.9667 33.9994 16.0417 34.4994 16.15C34.9994 16.25 35.4452 16.4125 35.8369 16.6375C36.2286 16.8625 36.5411 17.1708 36.7744 17.5625C37.0161 17.9458 37.1369 18.4417 37.1369 19.05C37.1369 19.6167 36.9952 20.1667 36.7119 20.7C36.4369 21.2333 36.0327 21.7083 35.4994 22.125C34.9744 22.5417 34.3244 22.875 33.5494 23.125C32.7827 23.3833 31.9077 23.5125 30.9244 23.5125C29.9577 23.5125 29.1161 23.4167 28.3994 23.225C27.6827 23.0417 27.0869 22.7917 26.6119 22.475C26.1369 22.1667 25.7827 21.8083 25.5494 21.4C25.3161 20.9917 25.1994 20.5667 25.1994 20.125C25.1994 19.525 25.3786 19.025 25.7369 18.625C26.1036 18.2167 26.6036 17.8917 27.2369 17.65C26.8952 17.475 26.6244 17.2417 26.4244 16.95C26.2244 16.6583 26.1244 16.275 26.1244 15.8C26.1244 15.6083 26.1577 15.4125 26.2244 15.2125C26.2994 15.0042 26.4036 14.8 26.5369 14.6C26.6786 14.4 26.8536 14.2125 27.0619 14.0375C27.2702 13.8542 27.5161 13.6917 27.7994 13.55C27.1494 13.2 26.6369 12.7333 26.2619 12.15C25.8952 11.5667 25.7119 10.8833 25.7119 10.1C25.7119 9.46667 25.8369 8.89583 26.0869 8.3875C26.3452 7.87083 26.6994 7.43333 27.1494 7.075C27.6077 6.70833 28.1452 6.42917 28.7619 6.2375C29.3869 6.04583 30.0661 5.95 30.7994 5.95C31.3494 5.95 31.8661 6.00833 32.3494 6.125C32.8327 6.23333 33.2744 6.39583 33.6744 6.6125H37.3619ZM44.7752 5.975C45.7252 5.975 46.5877 6.12917 47.3627 6.4375C48.146 6.74583 48.8127 7.18333 49.3627 7.75C49.921 8.31667 50.3502 9.00833 50.6502 9.825C50.9502 10.6417 51.1002 11.5542 51.1002 12.5625C51.1002 13.5792 50.9502 14.4958 50.6502 15.3125C50.3502 16.1292 49.921 16.825 49.3627 17.4C48.8127 17.975 48.146 18.4167 47.3627 18.725C46.5877 19.0333 45.7252 19.1875 44.7752 19.1875C43.8169 19.1875 42.946 19.0333 42.1627 18.725C41.3794 18.4167 40.7085 17.975 40.1502 17.4C39.6002 16.825 39.171 16.1292 38.8627 15.3125C38.5627 14.4958 38.4127 13.5792 38.4127 12.5625C38.4127 11.5542 38.5627 10.6417 38.8627 9.825C39.171 9.00833 39.6002 8.31667 40.1502 7.75C40.7085 7.18333 41.3794 6.74583 42.1627 6.4375C42.946 6.12917 43.8169 5.975 44.7752 5.975ZM44.7752 16.8125C45.8419 16.8125 46.6294 16.4542 47.1377 15.7375C47.6544 15.0208 47.9127 13.9708 47.9127 12.5875C47.9127 11.2042 47.6544 10.15 47.1377 9.425C46.6294 8.7 45.8419 8.3375 44.7752 8.3375C43.6919 8.3375 42.8877 8.70417 42.3627 9.4375C41.846 10.1625 41.5877 11.2125 41.5877 12.5875C41.5877 13.9625 41.846 15.0125 42.3627 15.7375C42.8877 16.4542 43.6919 16.8125 44.7752 16.8125Z" fill="white"/>
</svg>
