<svg width="31" height="30" viewBox="0 0 31 30" fill="none" xmlns="http://www.w3.org/2000/svg">
<path fill-rule="evenodd" clip-rule="evenodd" d="M3 15C3 14.3096 3.55964 13.75 4.25 13.75H26.75C27.4404 13.75 28 14.3096 28 15C28 15.6904 27.4404 16.25 26.75 16.25H4.25C3.55964 16.25 3 15.6904 3 15Z" fill="white"/>
<path fill-rule="evenodd" clip-rule="evenodd" d="M3 7.5C3 6.80964 3.55964 6.25 4.25 6.25H26.75C27.4404 6.25 28 6.80964 28 7.5C28 8.19036 27.4404 8.75 26.75 8.75H4.25C3.55964 8.75 3 8.19036 3 7.5Z" fill="white"/>
<path fill-rule="evenodd" clip-rule="evenodd" d="M3 22.5C3 21.8096 3.55964 21.25 4.25 21.25H26.75C27.4404 21.25 28 21.8096 28 22.5C28 23.1904 27.4404 23.75 26.75 23.75H4.25C3.55964 23.75 3 23.1904 3 22.5Z" fill="white"/>
</svg>
