<svg width="230" height="141" viewBox="0 0 230 141" fill="none" xmlns="http://www.w3.org/2000/svg">
<g clip-path="url(#clip0)">
<path d="M115.633 135.23C152.859 135.23 183.036 104.957 183.036 67.6148C183.036 30.2722 152.859 0 115.633 0C78.408 0 48.231 30.2722 48.231 67.6148C48.231 104.957 78.408 135.23 115.633 135.23Z" fill="#F2F2F2"/>
<path d="M192.895 15.749L188.773 26.1611C189.57 29.7828 190.351 33.867 190.977 38.2162L198.315 22.8097L198.436 22.9955C196.754 20.0806 194.843 17.5657 192.768 15.5775L192.895 15.749Z" fill="#6C63FF"/>
<path d="M188.632 25.526L192.625 15.4402C190.283 13.2319 187.738 11.6944 185.083 11.0158C184.945 10.9805 184.807 10.9496 184.67 10.9193C184.99 11.8751 186.833 17.4978 188.632 25.526Z" fill="#6C63FF"/>
<path d="M205.497 47.8624L205.59 48.0933C205.491 46.5213 205.337 44.9661 205.126 43.4276L192.368 59.4225L192.321 59.3187C192.294 60.2626 192.252 61.1937 192.197 62.1119L205.497 47.8624Z" fill="#6C63FF"/>
<path d="M203.168 34.4078L203.275 34.62C202.155 30.6394 200.57 26.8059 198.551 23.1995L191.072 38.8995C191.641 42.9786 192.021 46.9147 192.213 50.7078L203.168 34.4078Z" fill="#6C63FF"/>
<path d="M167.704 24.2304C166.754 27.0178 166.086 29.8944 165.712 32.8164L191.748 48.075C191.516 44.7882 191.163 41.6435 190.754 38.7376L167.676 24.4774L167.704 24.2304Z" fill="#6C63FF"/>
<path d="M165.369 36.2258L165.393 35.9773L191.922 51.025C191.885 50.2177 191.84 49.4174 191.787 48.624L165.655 33.3091L165.68 33.061C165.548 34.0906 165.444 35.1455 165.369 36.2258Z" fill="#6C63FF"/>
<path d="M204.985 42.909L205.084 43.1317C204.692 40.3455 204.112 37.589 203.35 34.881L192.247 51.4015C192.361 53.9316 192.39 56.3879 192.333 58.7706L204.985 42.909Z" fill="#6C63FF"/>
<path d="M190.883 72.5287C189.824 77.7981 188.201 82.497 186.026 86.5717C189.067 83.9711 201.137 72.9583 204.71 59.2006L190.883 72.5287Z" fill="#6C63FF"/>
<path d="M166.079 48.1761C166.648 50.8184 167.392 53.4196 168.308 55.9621L168.349 55.6927L190.645 71.9603C191.209 69.006 191.597 66.0203 191.805 63.0194L166.079 48.1761Z" fill="#6C63FF"/>
<path d="M188.344 25.5958C186.396 16.9104 184.4 11.0725 184.371 10.9888L184.496 10.8814C180.417 10.0404 176.664 11.3759 173.575 14.3754L188.344 25.5958Z" fill="#6C63FF"/>
<path d="M192.15 62.8224C192.131 63.107 192.113 63.3929 192.091 63.675C191.886 66.3803 191.534 69.0724 191.037 71.7394L204.733 58.5375L204.819 58.7662C205.428 56.3388 205.727 53.8438 205.711 51.3408C205.7 50.3574 205.666 49.3781 205.609 48.403L192.15 62.8224Z" fill="#6C63FF"/>
<path d="M190.671 38.1579C190.049 33.8585 189.277 29.8227 188.488 26.2433L173.38 14.7653L173.419 14.5262C171.113 16.8241 169.186 20.0598 167.781 24.0139L190.671 38.1579Z" fill="#6C63FF"/>
<path d="M190.552 72.429L168.42 56.2805C173.906 71.5273 184.603 86.1746 185.288 87.1045C187.823 82.6407 189.502 77.6349 190.552 72.429Z" fill="#6C63FF"/>
<path d="M191.829 62.5066L191.842 62.493C192.072 58.8546 192.107 55.2064 191.946 51.5643L165.351 36.4796C165.256 37.9435 165.217 39.4488 165.232 40.9953C165.273 43.2072 165.515 45.4107 165.956 47.5785L191.829 62.5066Z" fill="#6C63FF"/>
<path d="M229.276 73.6982L219.481 79.0802C217.793 82.3798 215.797 86.0247 213.514 89.775L228.962 82.6045L228.936 82.8246C229.495 79.5038 229.621 76.3437 229.287 73.485L229.276 73.6982Z" fill="#6C63FF"/>
<path d="M219.776 78.5008L229.264 73.2875C228.865 70.0889 227.882 67.2762 226.269 65.0546C226.185 64.9391 226.099 64.8273 226.012 64.716C225.651 65.6571 223.496 71.1668 219.776 78.5008Z" fill="#6C63FF"/>
<path d="M218.563 106.495L218.488 106.732C219.411 105.458 220.281 104.161 221.097 102.842L201.101 106.998L201.131 106.888C200.51 107.597 199.886 108.288 199.26 108.96L218.563 106.495Z" fill="#6C63FF"/>
<path d="M225.325 94.6421L225.273 94.8742C226.941 91.092 228.157 87.1248 228.895 83.0556L213.153 90.3626C210.997 93.8678 208.788 97.1426 206.524 100.187L225.325 94.6421Z" fill="#6C63FF"/>
<path d="M204.482 64.113C201.978 65.6517 199.635 67.4403 197.489 69.4515L207.84 97.862C209.75 95.1816 211.478 92.5339 213.011 90.0342L204.303 64.2854L204.482 64.113Z" fill="#6C63FF"/>
<path d="M195.056 71.8574L195.232 71.6812L206.098 100.245C206.582 99.5993 207.056 98.954 207.52 98.3091L197.131 69.7938L197.308 69.6189C196.551 70.3271 195.801 71.0733 195.056 71.8574Z" fill="#6C63FF"/>
<path d="M221.318 102.352L221.254 102.587C222.723 100.19 224.029 97.6965 225.164 95.123L206.108 100.743C204.588 102.765 203.048 104.675 201.489 106.474L221.318 102.352Z" fill="#6C63FF"/>
<path d="M191.624 116.142C187.459 119.523 183.221 122.104 178.956 123.851C182.951 123.793 199.25 123.034 210.748 114.724L191.624 116.142Z" fill="#6C63FF"/>
<path d="M188.005 81.5158C186.763 83.9148 185.683 86.3946 184.771 88.9385L184.975 88.7575L191.803 115.552C194.116 113.638 196.313 111.586 198.382 109.408L188.005 81.5158Z" fill="#6C63FF"/>
<path d="M219.51 78.3707C223.532 70.4347 225.706 64.6612 225.737 64.5782L225.902 64.5755C223.295 61.3178 219.555 59.9454 215.269 60.2791L219.51 78.3707Z" fill="#6C63FF"/>
<path d="M198.772 109.477C198.577 109.684 198.381 109.893 198.185 110.096C196.307 112.048 194.324 113.897 192.246 115.633L211.188 114.228L211.109 114.459C213.121 112.979 214.938 111.249 216.517 109.311C217.134 108.546 217.73 107.77 218.306 106.983L198.772 109.477Z" fill="#6C63FF"/>
<path d="M213.315 89.5347C215.57 85.8254 217.541 82.2229 219.209 78.9614L214.871 60.4546L215.054 60.2956C211.816 60.5896 208.275 61.8489 204.679 63.9956L213.315 89.5347Z" fill="#6C63FF"/>
<path d="M191.434 115.854L184.655 89.2559C179.186 104.508 178.112 122.634 178.048 123.789C182.839 121.972 187.315 119.191 191.434 115.854Z" fill="#6C63FF"/>
<path d="M198.726 109.028L198.744 109.026C201.235 106.371 203.582 103.584 205.773 100.676L194.881 72.0414C193.877 73.1082 192.89 74.2422 191.919 75.4433C190.544 77.1732 189.329 79.0252 188.29 80.9764L198.726 109.028Z" fill="#6C63FF"/>
<path d="M163.488 56.8918L162.776 68.072C164.651 71.2691 166.651 74.9114 168.587 78.8535L170.819 61.9259L170.991 62.0652C168.493 59.8144 165.9 58.0155 163.315 56.7679L163.488 56.8918Z" fill="#6C63FF"/>
<path d="M162.446 67.5118L163.136 56.6818C160.229 55.3076 157.335 54.6345 154.6 54.8125C154.458 54.8217 154.318 54.835 154.178 54.8488C154.777 55.6584 158.262 60.4344 162.446 67.5118Z" fill="#6C63FF"/>
<path d="M185.368 83.5251L185.527 83.7159C184.949 82.2514 184.323 80.8203 183.648 79.4225L176.443 98.5901L176.367 98.5057C176.632 99.412 176.879 100.31 177.11 101.201L185.368 83.5251Z" fill="#6C63FF"/>
<path d="M179.007 71.4513L179.175 71.6198C176.883 68.1814 174.194 65.0273 171.163 62.2235L168.888 79.4736C170.685 83.1767 172.26 86.8021 173.612 90.3499L179.007 71.4513Z" fill="#6C63FF"/>
<path d="M142.144 72.7686C142.099 75.7143 142.351 78.6569 142.896 81.5517L172.358 87.9902C171.124 84.9365 169.82 82.0551 168.536 79.4183L142.194 73.0123L142.144 72.7686Z" fill="#6C63FF"/>
<path d="M143.619 84.9008L143.565 84.6571L173.432 90.7418C173.148 89.9857 172.858 89.2386 172.564 88.5005L142.992 82.0383L142.94 81.7945C143.131 82.8148 143.358 83.8502 143.619 84.9008Z" fill="#6C63FF"/>
<path d="M183.355 78.973L183.518 79.1538C182.286 76.6257 180.886 74.1839 179.326 71.845L173.857 90.9991C174.745 93.3699 175.529 95.6972 176.21 97.9807L183.355 78.973Z" fill="#6C63FF"/>
<path d="M179.07 111.515C179.687 116.854 179.591 121.827 178.778 126.376C180.869 122.96 188.955 108.744 188.113 94.5519L179.07 111.515Z" fill="#6C63FF"/>
<path d="M147.977 96.0457C149.332 98.3823 150.842 100.625 152.496 102.759L152.452 102.49L178.668 111.048C178.295 108.063 177.744 105.104 177.017 102.185L147.977 96.0457Z" fill="#6C63FF"/>
<path d="M162.194 67.6673C157.665 60.0112 153.968 55.0783 153.915 55.0076L154 54.8667C149.862 55.3317 146.705 57.7654 144.691 61.5759L162.194 67.6673Z" fill="#6C63FF"/>
<path d="M177.285 101.891C177.354 102.167 177.425 102.445 177.491 102.72C178.13 105.356 178.624 108.026 178.974 110.716L187.931 93.9142L188.083 94.1052C187.914 91.6079 187.43 89.1421 186.643 86.7668C186.33 85.8348 185.996 84.9141 185.641 84.0046L177.285 101.891Z" fill="#6C63FF"/>
<path d="M168.278 78.8927C166.362 74.9967 164.384 71.398 162.531 68.2384L144.626 62.0071L144.59 61.7675C143.104 64.6681 142.268 68.3428 142.151 72.5389L168.278 78.8927Z" fill="#6C63FF"/>
<path d="M178.725 111.522L152.701 103.027C162.616 115.827 177.302 126.44 178.24 127.112C179.276 122.08 179.33 116.799 178.725 111.522Z" fill="#6C63FF"/>
<path d="M176.882 101.69L176.889 101.673C175.987 98.1417 174.896 94.6614 173.621 91.2475L143.681 85.1477C144.042 86.5694 144.468 88.0132 144.959 89.4792C145.68 91.57 146.589 93.5906 147.675 95.5157L176.882 101.69Z" fill="#6C63FF"/>
<path d="M149.701 122.918C170.078 122.677 190.454 122.816 210.83 123.333C212.583 123.378 214.402 123.435 215.949 123.901C217.497 124.366 218.689 125.365 218.265 126.325C210.311 126.561 202.349 126.634 194.379 126.544C192.643 127.397 190.737 128.681 191.804 129.831C192.542 130.627 194.364 130.864 195.958 130.866C198.844 130.869 201.741 130.394 204.584 130.673C207.428 130.952 210.265 132.452 209.432 134.009C208.799 135.192 206.4 135.777 204.216 135.882C202.032 135.987 199.796 135.769 197.662 136.049C195.633 136.315 193.876 137.007 191.978 137.49C188.983 138.251 185.664 138.486 182.398 138.687C157.319 140.224 132.033 140.211 106.806 140.197C96.5936 140.192 86.2422 140.176 76.3803 138.681C70.7588 137.828 65.372 136.504 59.6795 135.817C52.88 134.997 45.8526 135.108 38.8992 135.133C26.6921 135.176 14.4953 134.94 2.30884 134.425C1.40196 134.386 0.288802 134.257 0.0440646 133.763C-0.241556 133.187 0.917602 132.737 1.89741 132.507C7.44943 131.218 13.0948 130.373 18.7801 129.981C21.6594 129.778 24.6265 129.675 27.2747 129.006C29.923 128.337 32.2365 126.935 32.2117 125.3C32.2041 124.801 31.9943 124.267 32.4093 123.827C32.9605 123.241 34.3165 123.107 35.4864 123.043C48.4562 122.336 61.4967 122.041 74.5253 122.16C79.1082 122.201 83.7101 122.294 88.2606 121.984C91.9891 121.73 95.6411 121.209 99.3157 120.772C104.248 120.185 125.714 117.144 128.845 119.611C131.189 121.459 126.35 121.857 132.637 122.611C138.111 123.267 144.149 122.984 149.701 122.918Z" fill="#F2F2F2"/>
<path d="M138.437 58.7075C145.124 58.7075 150.546 53.2694 150.546 46.5611C150.546 39.8529 145.124 34.4147 138.437 34.4147C131.75 34.4147 126.329 39.8529 126.329 46.5611C126.329 53.2694 131.75 58.7075 138.437 58.7075Z" fill="#2F2E41"/>
<path d="M151.554 42.7148C158.242 42.7148 163.663 37.2766 163.663 30.5684C163.663 23.8601 158.242 18.422 151.554 18.422C144.867 18.422 139.446 23.8601 139.446 30.5684C139.446 37.2766 144.867 42.7148 151.554 42.7148Z" fill="#2F2E41"/>
<path d="M161.999 40.6264C160.431 41.7627 158.616 42.5059 156.704 42.7939C154.791 43.082 152.838 42.9064 151.007 42.282C149.177 41.6575 147.522 40.6023 146.181 39.2047C144.84 37.807 143.852 36.1076 143.3 34.2485C143.509 35.9146 144.06 37.5191 144.918 38.9607C145.776 40.4024 146.923 41.6499 148.286 42.6245C149.649 43.5991 151.199 44.2797 152.837 44.6232C154.476 44.9667 156.168 44.9657 157.806 44.6202C159.444 44.2748 160.993 43.5924 162.355 42.6161C163.716 41.6399 164.862 40.391 165.718 38.9483C166.575 37.5056 167.124 35.9005 167.331 34.2342C167.537 32.5679 167.398 30.8767 166.92 29.2674C167.191 31.4296 166.878 33.6251 166.012 35.6237C165.146 37.6223 163.76 39.3503 161.999 40.6264V40.6264Z" fill="#2F2E41"/>
<path d="M135.309 61.238C140.77 61.238 145.198 56.7969 145.198 51.3185C145.198 45.8401 140.77 41.3989 135.309 41.3989C129.848 41.3989 125.421 45.8401 125.421 51.3185C125.421 56.7969 129.848 61.238 135.309 61.238Z" fill="#A0616A"/>
<path d="M131.879 59.416C131.879 59.416 135.915 65.4892 135.309 68.1209C135.309 68.1209 132.686 69.3356 132.686 69.7405C132.686 70.1453 130.264 73.9917 130.264 73.9917L127.439 77.838L126.228 82.899H132.08L138.538 77.838L144.794 70.9551C144.794 70.9551 149.032 68.9307 151.252 70.5502L152.463 71.5624C152.463 71.5624 148.225 65.8941 146.207 64.6795C146.207 64.6795 142.574 60.2258 142.978 55.7721L131.879 59.416Z" fill="#A0616A"/>
<path d="M133.493 67.9185C133.493 67.9185 129.457 70.1454 127.842 74.3966C126.228 78.6478 118.963 92.8186 118.963 92.8186C118.963 92.8186 118.358 101.928 118.761 102.333C119.165 102.738 123.806 98.2845 124.614 97.0698C125.421 95.8552 128.65 81.2795 128.65 81.2795L133.897 72.7771L134.906 67.9185H133.493Z" fill="#A0616A"/>
<path d="M120.78 93.4259L118.964 92.8186C118.964 92.8186 107.864 85.9356 107.259 82.899C106.654 79.8624 97.7742 69.7404 97.5724 75.2063C97.3706 80.6722 104.03 86.7454 104.03 86.7454C104.03 86.7454 118.56 107.192 119.367 101.321L120.78 93.4259Z" fill="#A0616A"/>
<path d="M139.144 79.4576C139.144 79.4576 139.345 85.1259 147.216 87.1503C147.216 87.1503 155.288 98.082 156.095 102.941C156.902 107.799 178.092 132.699 178.092 132.699C178.092 132.699 197.667 135.128 197.667 132.699C197.667 130.27 181.321 128.246 181.321 128.246C181.321 128.246 164.167 102.738 163.36 99.2966C162.553 95.8552 154.884 70.3478 151.252 70.5502C151.252 70.5502 147.821 68.9307 145.803 70.1453C143.785 71.36 139.144 79.4576 139.144 79.4576Z" fill="#A0616A"/>
<path d="M115.532 102.333C115.532 102.333 101.406 83.3039 98.3791 82.0893C95.3521 80.8746 91.5178 80.0649 89.298 82.899C87.0781 85.7332 60.8436 118.933 60.8436 118.933C60.8436 118.933 51.5607 128.448 46.9192 126.626C46.9192 126.626 44.4975 128.65 50.148 129.055C55.7985 129.46 61.0454 127.841 61.0454 127.841C61.0454 127.841 64.4761 128.448 66.8977 129.055C69.3194 129.663 72.3464 129.865 72.1446 128.245L71.3374 121.767C71.3374 121.767 92.1232 104.56 92.7286 97.2722C92.7286 97.2722 92.325 93.8308 92.7286 94.2356C93.1322 94.6405 101.608 103.75 105.442 105.775C109.277 107.799 118.761 110.633 118.761 110.633L115.532 102.333Z" fill="#A0616A"/>
<path opacity="0.1" d="M115.532 102.333C115.532 102.333 101.406 83.3039 98.3791 82.0893C95.3521 80.8746 91.5178 80.0649 89.298 82.899C87.0781 85.7332 60.8436 118.933 60.8436 118.933C60.8436 118.933 51.5607 128.448 46.9192 126.626C46.9192 126.626 44.4975 128.65 50.148 129.055C55.7985 129.46 61.0454 127.841 61.0454 127.841C61.0454 127.841 64.4761 128.448 66.8977 129.055C69.3194 129.663 72.3464 129.865 72.1446 128.245L71.3374 121.767C71.3374 121.767 92.1232 104.56 92.7286 97.2722C92.7286 97.2722 92.325 93.8308 92.7286 94.2356C93.1322 94.6405 101.608 103.75 105.442 105.775C109.277 107.799 118.761 110.633 118.761 110.633L115.532 102.333Z" fill="black"/>
<path d="M117.752 104.965C117.752 104.965 99.1864 97.8795 96.7648 96.26C94.3431 94.6405 85.6656 91.4015 81.2259 95.0454C76.7862 98.6893 55.1932 115.492 47.9283 117.111C40.6634 118.731 28.1516 122.577 28.1516 122.577C28.1516 122.577 20.0794 123.184 28.757 126.626C28.757 126.626 39.4526 127.638 41.2688 129.258C43.085 130.877 49.1391 132.902 49.5427 130.27C49.9464 127.638 51.1572 124.197 53.377 123.792C55.5969 123.387 82.2349 116.099 86.271 108.204C86.271 108.204 95.3522 113.265 101.003 119.136C106.653 125.006 119.972 128.245 119.972 128.245L117.752 104.965Z" fill="#A0616A"/>
<path d="M124.412 98.4869C124.412 98.4869 115.566 100.846 114.843 99.9699C114.12 99.0942 110.286 103.953 113.918 113.67C117.551 123.387 116.743 127.841 118.761 129.258C120.779 130.675 130.264 128.448 133.09 129.46C135.915 130.472 139.547 131.282 140.758 125.411C141.969 119.541 144.996 109.216 144.39 107.799C143.785 106.382 140.556 103.143 140.556 103.143L133.897 99.7015L124.412 98.4869Z" fill="#3F3D56"/>
<path d="M154.985 75.7124C154.985 75.7124 153.58 71.7646 150.972 71.0245C150.752 70.9643 150.534 70.8928 150.321 70.8103C149.341 70.4202 146.353 69.5684 144.189 72.5746C141.565 76.2185 139.144 80.4698 141.162 82.8991C143.18 85.3283 147.216 86.7454 147.216 86.7454L150.243 90.5918C150.243 90.5918 144.189 101.524 144.189 106.584C144.189 106.584 143.987 108.609 140.556 104.965C137.126 101.321 123.086 98.8017 123.086 98.8017C123.086 98.8017 126.026 94.843 123.807 93.021C121.587 91.1991 119.554 83.9419 124.808 81.0924L133.796 67.8173L135.41 68.0197C135.41 68.0197 133.291 69.9429 133.089 70.9551C132.888 71.9673 124.816 79.0527 128.044 80.2673C131.273 81.482 136.52 78.8503 138.74 75.8137C139.961 74.1435 141.67 71.861 143.834 70.4144C144.945 69.6869 146.228 69.2662 147.553 69.1949C148.878 69.1235 150.199 69.4039 151.381 70.0079L152.059 70.3478C153.378 71.2741 154.413 72.5515 155.047 74.0361L155.288 74.599L154.985 75.7124Z" fill="#2F2E41"/>
<path d="M141.666 57.4928C146.57 57.4928 150.545 53.5049 150.545 48.5855C150.545 43.6661 146.57 39.6782 141.666 39.6782C136.762 39.6782 132.787 43.6661 132.787 48.5855C132.787 53.5049 136.762 57.4928 141.666 57.4928Z" fill="#2F2E41"/>
<path d="M134.199 51.4197C138.546 51.4197 142.07 48.6553 142.07 45.2453C142.07 41.8352 138.546 39.0709 134.199 39.0709C129.853 39.0709 126.329 41.8352 126.329 45.2453C126.329 48.6553 129.853 51.4197 134.199 51.4197Z" fill="#2F2E41"/>
<path d="M137.126 57.2904C137.85 57.2904 138.437 56.2481 138.437 54.9624C138.437 53.6766 137.85 52.6343 137.126 52.6343C136.401 52.6343 135.814 53.6766 135.814 54.9624C135.814 56.2481 136.401 57.2904 137.126 57.2904Z" fill="#A0616A"/>
<path d="M139.346 34.4876V50.6099H134.704V34.4876C134.704 34.1998 134.818 33.9238 135.021 33.7204C135.224 33.5169 135.499 33.4025 135.786 33.4025H138.264C138.551 33.4025 138.826 33.5169 139.029 33.7204C139.232 33.9238 139.346 34.1998 139.346 34.4876Z" fill="#FF6584"/>
<path d="M137.025 58.9099C139.811 58.9099 142.07 56.6441 142.07 53.849C142.07 51.0538 139.811 48.788 137.025 48.788C134.238 48.788 131.979 51.0538 131.979 53.849C131.979 56.6441 134.238 58.9099 137.025 58.9099Z" fill="#6C63FF"/>
<path d="M137.025 56.0758C138.251 56.0758 139.244 55.0788 139.244 53.849C139.244 52.6191 138.251 51.6221 137.025 51.6221C135.799 51.6221 134.805 52.6191 134.805 53.849C134.805 55.0788 135.799 56.0758 137.025 56.0758Z" fill="#F2F2F2"/>
<path d="M137.024 54.4563C137.359 54.4563 137.63 54.1844 137.63 53.849C137.63 53.5135 137.359 53.2416 137.024 53.2416C136.69 53.2416 136.419 53.5135 136.419 53.849C136.419 54.1844 136.69 54.4563 137.024 54.4563Z" fill="#FF6584"/>
<path opacity="0.1" d="M139.346 34.4876V35.2245H134.704V34.4876C134.704 34.1998 134.818 33.9238 135.021 33.7204C135.224 33.5169 135.499 33.4025 135.786 33.4025H138.264C138.551 33.4025 138.826 33.5169 139.029 33.7204C139.232 33.9238 139.346 34.1998 139.346 34.4876Z" fill="black"/>
<path d="M85.4343 74.4262L97.3165 62.5065C97.5224 62.3 97.7667 62.1363 98.0356 62.0245C98.3045 61.9128 98.5927 61.8553 98.8838 61.8553C99.1749 61.8553 99.4631 61.9128 99.732 62.0245C100.001 62.1363 100.245 62.3 100.451 62.5065L111.14 73.2293C111.556 73.6462 111.789 74.2118 111.789 74.8014C111.789 75.3911 111.556 75.9567 111.14 76.3736L100.038 87.5106C99.6422 87.9078 99.1111 88.1399 98.5516 88.1604C97.9921 88.1808 97.4455 87.9881 97.0219 87.6209L85.5526 77.6808C85.322 77.481 85.135 77.2357 85.0033 76.9601C84.8715 76.6846 84.7977 76.3848 84.7866 76.0793C84.7755 75.7739 84.8273 75.4695 84.9388 75.1851C85.0502 74.9006 85.2189 74.6423 85.4343 74.4262V74.4262Z" fill="#2F2E41"/>
<path d="M88.7935 76.3197L99.1863 65.8941L107.763 74.4978L97.7737 84.5185L88.7935 76.3197Z" fill="#F2F2F2"/>
<path d="M98.4802 80.0873C101.223 80.0873 103.447 77.8567 103.447 75.1051C103.447 72.3535 101.223 70.1229 98.4802 70.1229C95.7373 70.1229 93.5137 72.3535 93.5137 75.1051C93.5137 77.8567 95.7373 80.0873 98.4802 80.0873Z" fill="#6C63FF"/>
<path opacity="0.1" d="M96.2695 79.3515C95.4387 78.5684 94.9017 77.5224 94.7488 76.3891C94.5958 75.2558 94.8362 74.1042 95.4295 73.1277C96.0228 72.1511 96.933 71.4091 98.0072 71.0261C99.0814 70.6431 100.254 70.6425 101.329 71.0244C100.748 70.6165 100.087 70.3381 99.3908 70.2077C98.694 70.0773 97.9775 70.0981 97.2894 70.2685C96.6014 70.439 95.9576 70.7552 95.4015 71.1959C94.8453 71.6366 94.3896 72.1917 94.0651 72.8237C93.7405 73.4558 93.5545 74.1502 93.5197 74.8603C93.4848 75.5705 93.6019 76.2798 93.863 76.9408C94.1242 77.6018 94.5233 78.199 95.0336 78.6924C95.5439 79.1858 96.1536 79.5639 96.8217 79.8014C96.6272 79.6647 96.4427 79.5144 96.2695 79.3515V79.3515Z" fill="black"/>
<path d="M100.922 74.115C101.514 74.6733 101.545 76.6829 100.641 77.6485C99.7367 78.614 98.2391 78.1697 97.6469 77.6114C97.0546 77.0532 97.5918 76.5923 98.4962 75.6268C99.4005 74.6613 100.33 73.5567 100.922 74.115Z" fill="#F2F2F2"/>
<path d="M95.8798 76.6625C96.6925 76.6625 97.3514 76.0016 97.3514 75.1863C97.3514 74.371 96.6925 73.7101 95.8798 73.7101C95.067 73.7101 94.4082 74.371 94.4082 75.1863C94.4082 76.0016 95.067 76.6625 95.8798 76.6625Z" fill="#2F2E41"/>
<path d="M98.5253 73.8385C99.338 73.8385 99.9969 73.1776 99.9969 72.3623C99.9969 71.547 99.338 70.8861 98.5253 70.8861C97.7126 70.8861 97.0537 71.547 97.0537 72.3623C97.0537 73.1776 97.7126 73.8385 98.5253 73.8385Z" fill="#2F2E41"/>
<path d="M95.8801 75.5554C96.0833 75.5554 96.248 75.3901 96.248 75.1863C96.248 74.9825 96.0833 74.8173 95.8801 74.8173C95.6769 74.8173 95.5122 74.9825 95.5122 75.1863C95.5122 75.3901 95.6769 75.5554 95.8801 75.5554Z" fill="#F2F2F2"/>
<path d="M95.7215 74.462C95.8231 74.462 95.9055 74.3793 95.9055 74.2774C95.9055 74.1755 95.8231 74.0929 95.7215 74.0929C95.62 74.0929 95.5376 74.1755 95.5376 74.2774C95.5376 74.3793 95.62 74.462 95.7215 74.462Z" fill="#F2F2F2"/>
<path d="M98.3671 71.638C98.4687 71.638 98.551 71.5553 98.551 71.4534C98.551 71.3515 98.4687 71.2689 98.3671 71.2689C98.2655 71.2689 98.1831 71.3515 98.1831 71.4534C98.1831 71.5553 98.2655 71.638 98.3671 71.638Z" fill="#F2F2F2"/>
<path d="M98.5251 72.7313C98.7283 72.7313 98.893 72.5661 98.893 72.3623C98.893 72.1585 98.7283 71.9932 98.5251 71.9932C98.3219 71.9932 98.1572 72.1585 98.1572 72.3623C98.1572 72.5661 98.3219 72.7313 98.5251 72.7313Z" fill="#F2F2F2"/>
</g>
<defs>
<clipPath id="clip0">
<rect width="229.47" height="140.2" fill="white"/>
</clipPath>
</defs>
</svg>
