<svg width="375" height="330" viewBox="0 0 375 330" fill="none" xmlns="http://www.w3.org/2000/svg">
<g opacity="0.25">
<g filter="url(#filter0_d)">
<path d="M327.5 128L329.184 133.182H334.633L330.225 136.385L331.908 141.568L327.5 138.365L323.092 141.568L324.775 136.385L320.367 133.182H325.816L327.5 128Z" fill="#3A3A3D"/>
</g>
<g filter="url(#filter1_d)">
<path d="M49 119L50.7961 124.182H56.6085L51.9062 127.385L53.7023 132.568L49 129.365L44.2977 132.568L46.0938 127.385L41.3915 124.182H47.2039L49 119Z" fill="#3A3A3D"/>
</g>
<g filter="url(#filter2_d)">
<path d="M28 192L29.7961 197.182H35.6085L30.9062 200.385L32.7023 205.568L28 202.365L23.2977 205.568L25.0938 200.385L20.3915 197.182H26.2039L28 192Z" fill="#3A3A3D"/>
</g>
<g filter="url(#filter3_d)">
<path d="M347 176L348.796 181.182H354.608L349.906 184.385L351.702 189.568L347 186.365L342.298 189.568L344.094 184.385L339.392 181.182H345.204L347 176Z" fill="#3A3A3D"/>
</g>
<g filter="url(#filter4_d)">
<path d="M169 116L170.796 121.182H176.608L171.906 124.385L173.702 129.568L169 126.365L164.298 129.568L166.094 124.385L161.392 121.182H167.204L169 116Z" fill="#3A3A3D"/>
</g>
<g filter="url(#filter5_d)">
<path d="M237 129L238.572 134.182H243.657L239.543 137.385L241.114 142.568L237 139.365L232.886 142.568L234.457 137.385L230.343 134.182H235.428L237 129Z" fill="#3A3A3D"/>
</g>
<g filter="url(#filter6_d)">
<path d="M195.5 170L197.184 175.182H202.633L198.225 178.385L199.908 183.568L195.5 180.365L191.092 183.568L192.775 178.385L188.367 175.182H193.816L195.5 170Z" fill="#3A3A3D"/>
</g>
</g>
<defs>
<filter id="filter0_d" x="204.367" y="12" width="254.266" height="253.568" filterUnits="userSpaceOnUse" color-interpolation-filters="sRGB">
<feFlood flood-opacity="0" result="BackgroundImageFix"/>
<feColorMatrix in="SourceAlpha" type="matrix" values="0 0 0 0 0 0 0 0 0 0 0 0 0 0 0 0 0 0 127 0"/>
<feOffset dx="4" dy="4"/>
<feGaussianBlur stdDeviation="60"/>
<feColorMatrix type="matrix" values="0 0 0 0 1 0 0 0 0 1 0 0 0 0 1 0 0 0 0.3 0"/>
<feBlend mode="normal" in2="BackgroundImageFix" result="effect1_dropShadow"/>
<feBlend mode="normal" in="SourceGraphic" in2="effect1_dropShadow" result="shape"/>
</filter>
<filter id="filter1_d" x="-74.6084" y="3" width="255.217" height="253.568" filterUnits="userSpaceOnUse" color-interpolation-filters="sRGB">
<feFlood flood-opacity="0" result="BackgroundImageFix"/>
<feColorMatrix in="SourceAlpha" type="matrix" values="0 0 0 0 0 0 0 0 0 0 0 0 0 0 0 0 0 0 127 0"/>
<feOffset dx="4" dy="4"/>
<feGaussianBlur stdDeviation="60"/>
<feColorMatrix type="matrix" values="0 0 0 0 1 0 0 0 0 1 0 0 0 0 1 0 0 0 0.3 0"/>
<feBlend mode="normal" in2="BackgroundImageFix" result="effect1_dropShadow"/>
<feBlend mode="normal" in="SourceGraphic" in2="effect1_dropShadow" result="shape"/>
</filter>
<filter id="filter2_d" x="-95.6084" y="76" width="255.217" height="253.568" filterUnits="userSpaceOnUse" color-interpolation-filters="sRGB">
<feFlood flood-opacity="0" result="BackgroundImageFix"/>
<feColorMatrix in="SourceAlpha" type="matrix" values="0 0 0 0 0 0 0 0 0 0 0 0 0 0 0 0 0 0 127 0"/>
<feOffset dx="4" dy="4"/>
<feGaussianBlur stdDeviation="60"/>
<feColorMatrix type="matrix" values="0 0 0 0 1 0 0 0 0 1 0 0 0 0 1 0 0 0 0.3 0"/>
<feBlend mode="normal" in2="BackgroundImageFix" result="effect1_dropShadow"/>
<feBlend mode="normal" in="SourceGraphic" in2="effect1_dropShadow" result="shape"/>
</filter>
<filter id="filter3_d" x="223.392" y="60" width="255.217" height="253.568" filterUnits="userSpaceOnUse" color-interpolation-filters="sRGB">
<feFlood flood-opacity="0" result="BackgroundImageFix"/>
<feColorMatrix in="SourceAlpha" type="matrix" values="0 0 0 0 0 0 0 0 0 0 0 0 0 0 0 0 0 0 127 0"/>
<feOffset dx="4" dy="4"/>
<feGaussianBlur stdDeviation="60"/>
<feColorMatrix type="matrix" values="0 0 0 0 1 0 0 0 0 1 0 0 0 0 1 0 0 0 0.3 0"/>
<feBlend mode="normal" in2="BackgroundImageFix" result="effect1_dropShadow"/>
<feBlend mode="normal" in="SourceGraphic" in2="effect1_dropShadow" result="shape"/>
</filter>
<filter id="filter4_d" x="45.3916" y="0" width="255.217" height="253.568" filterUnits="userSpaceOnUse" color-interpolation-filters="sRGB">
<feFlood flood-opacity="0" result="BackgroundImageFix"/>
<feColorMatrix in="SourceAlpha" type="matrix" values="0 0 0 0 0 0 0 0 0 0 0 0 0 0 0 0 0 0 127 0"/>
<feOffset dx="4" dy="4"/>
<feGaussianBlur stdDeviation="60"/>
<feColorMatrix type="matrix" values="0 0 0 0 1 0 0 0 0 1 0 0 0 0 1 0 0 0 0.3 0"/>
<feBlend mode="normal" in2="BackgroundImageFix" result="effect1_dropShadow"/>
<feBlend mode="normal" in="SourceGraphic" in2="effect1_dropShadow" result="shape"/>
</filter>
<filter id="filter5_d" x="114.343" y="13" width="253.315" height="253.568" filterUnits="userSpaceOnUse" color-interpolation-filters="sRGB">
<feFlood flood-opacity="0" result="BackgroundImageFix"/>
<feColorMatrix in="SourceAlpha" type="matrix" values="0 0 0 0 0 0 0 0 0 0 0 0 0 0 0 0 0 0 127 0"/>
<feOffset dx="4" dy="4"/>
<feGaussianBlur stdDeviation="60"/>
<feColorMatrix type="matrix" values="0 0 0 0 1 0 0 0 0 1 0 0 0 0 1 0 0 0 0.3 0"/>
<feBlend mode="normal" in2="BackgroundImageFix" result="effect1_dropShadow"/>
<feBlend mode="normal" in="SourceGraphic" in2="effect1_dropShadow" result="shape"/>
</filter>
<filter id="filter6_d" x="72.3672" y="54" width="254.266" height="253.568" filterUnits="userSpaceOnUse" color-interpolation-filters="sRGB">
<feFlood flood-opacity="0" result="BackgroundImageFix"/>
<feColorMatrix in="SourceAlpha" type="matrix" values="0 0 0 0 0 0 0 0 0 0 0 0 0 0 0 0 0 0 127 0"/>
<feOffset dx="4" dy="4"/>
<feGaussianBlur stdDeviation="60"/>
<feColorMatrix type="matrix" values="0 0 0 0 1 0 0 0 0 1 0 0 0 0 1 0 0 0 0.3 0"/>
<feBlend mode="normal" in2="BackgroundImageFix" result="effect1_dropShadow"/>
<feBlend mode="normal" in="SourceGraphic" in2="effect1_dropShadow" result="shape"/>
</filter>
</defs>
</svg>
