<svg width="100" height="38" viewBox="0 0 100 38" fill="none" xmlns="http://www.w3.org/2000/svg">
<path d="M1.5065 33V21.27H3.0015C3.33883 21.27 3.5535 21.4272 3.6455 21.7415L3.8065 22.765C4.02117 22.5197 4.2435 22.2973 4.4735 22.098C4.7035 21.891 4.94883 21.7147 5.2095 21.569C5.47783 21.4157 5.7615 21.2968 6.0605 21.2125C6.36717 21.1282 6.69683 21.086 7.0495 21.086C7.42517 21.086 7.77017 21.1397 8.0845 21.247C8.39883 21.3543 8.67483 21.5077 8.9125 21.707C9.15783 21.9063 9.36867 22.1478 9.545 22.4315C9.72133 22.7152 9.867 23.0333 9.982 23.386C10.1583 22.9797 10.3807 22.6308 10.649 22.3395C10.9173 22.0482 11.2163 21.8105 11.546 21.6265C11.8757 21.4425 12.2245 21.3083 12.5925 21.224C12.9682 21.132 13.3477 21.086 13.731 21.086C14.3597 21.086 14.9193 21.1857 15.41 21.385C15.9083 21.5843 16.3262 21.8757 16.6635 22.259C17.0085 22.6347 17.2692 23.0985 17.4455 23.6505C17.6218 24.2025 17.71 24.8312 17.71 25.5365V33H15.2375V25.5365C15.2375 24.7085 15.0573 24.0875 14.697 23.6735C14.3443 23.2518 13.8192 23.041 13.1215 23.041C12.8072 23.041 12.512 23.0947 12.236 23.202C11.96 23.3093 11.7185 23.4665 11.5115 23.6735C11.3045 23.8805 11.1397 24.1412 11.017 24.4555C10.902 24.7622 10.8445 25.1225 10.8445 25.5365V33H8.372V25.5365C8.372 24.6778 8.1995 24.0492 7.8545 23.6505C7.5095 23.2442 7.0035 23.041 6.3365 23.041C5.8765 23.041 5.451 23.1598 5.06 23.3975C4.669 23.6275 4.30867 23.9457 3.979 24.352V33H1.5065ZM30.4883 21.27V33H28.9933C28.6636 33 28.4528 32.8428 28.3608 32.5285L28.1768 31.436C27.9315 31.6967 27.6708 31.9343 27.3948 32.149C27.1265 32.3637 26.839 32.5477 26.5323 32.701C26.2256 32.8543 25.896 32.9732 25.5433 33.0575C25.1983 33.1418 24.8265 33.184 24.4278 33.184C23.7838 33.184 23.2165 33.0767 22.7258 32.862C22.2351 32.6473 21.8211 32.3445 21.4838 31.9535C21.1541 31.5625 20.905 31.0948 20.7363 30.5505C20.5676 29.9985 20.4833 29.3928 20.4833 28.7335V21.27H22.9558V28.7335C22.9558 29.5232 23.136 30.1365 23.4963 30.5735C23.8643 31.0105 24.4201 31.229 25.1638 31.229C25.7081 31.229 26.2141 31.1063 26.6818 30.861C27.1571 30.608 27.6018 30.263 28.0158 29.826V21.27H30.4883ZM40.4944 23.3975C40.433 23.5048 40.364 23.5815 40.2874 23.6275C40.2107 23.6735 40.1149 23.6965 39.9999 23.6965C39.8695 23.6965 39.7277 23.6582 39.5744 23.5815C39.421 23.4972 39.2409 23.4052 39.0339 23.3055C38.8269 23.2058 38.5815 23.1177 38.2979 23.041C38.0219 22.9567 37.696 22.9145 37.3204 22.9145C37.0137 22.9145 36.7339 22.9528 36.4809 23.0295C36.2355 23.0985 36.0247 23.202 35.8484 23.34C35.6797 23.4703 35.5494 23.6275 35.4574 23.8115C35.3654 23.9878 35.3194 24.1795 35.3194 24.3865C35.3194 24.6625 35.4037 24.8925 35.5724 25.0765C35.741 25.2605 35.9634 25.4215 36.2394 25.5595C36.5154 25.6898 36.8297 25.8087 37.1824 25.916C37.535 26.0233 37.8954 26.1383 38.2634 26.261C38.6314 26.3837 38.9917 26.5255 39.3444 26.6865C39.697 26.8475 40.0114 27.0468 40.2874 27.2845C40.5634 27.5145 40.7857 27.7982 40.9544 28.1355C41.123 28.4652 41.2074 28.8677 41.2074 29.343C41.2074 29.895 41.1077 30.4048 40.9084 30.8725C40.709 31.3402 40.4177 31.7465 40.0344 32.0915C39.651 32.4365 39.1719 32.7048 38.5969 32.8965C38.0295 33.0882 37.3779 33.184 36.6419 33.184C36.2355 33.184 35.8407 33.1457 35.4574 33.069C35.0817 33 34.7214 32.9042 34.3764 32.7815C34.039 32.6512 33.7209 32.4978 33.4219 32.3215C33.1305 32.1452 32.8699 31.9535 32.6399 31.7465L33.2149 30.8035C33.2839 30.6885 33.3682 30.6003 33.4679 30.539C33.5752 30.47 33.7055 30.4355 33.8589 30.4355C34.0199 30.4355 34.177 30.4892 34.3304 30.5965C34.4914 30.6962 34.6754 30.8073 34.8824 30.93C35.097 31.0527 35.3539 31.1677 35.6529 31.275C35.9519 31.3747 36.3237 31.4245 36.7684 31.4245C37.1364 31.4245 37.4545 31.3823 37.7229 31.298C37.9912 31.206 38.2135 31.0833 38.3899 30.93C38.5662 30.7767 38.6965 30.6042 38.7809 30.4125C38.8652 30.2132 38.9074 30.0023 38.9074 29.78C38.9074 29.481 38.823 29.2357 38.6544 29.044C38.4857 28.8523 38.2595 28.6875 37.9759 28.5495C37.6999 28.4115 37.3817 28.2888 37.0214 28.1815C36.6687 28.0742 36.3084 27.9592 35.9404 27.8365C35.5724 27.7138 35.2082 27.572 34.8479 27.411C34.4952 27.25 34.177 27.0468 33.8934 26.8015C33.6174 26.5485 33.395 26.2457 33.2264 25.893C33.0577 25.5327 32.9734 25.0957 32.9734 24.582C32.9734 24.1143 33.0654 23.6697 33.2494 23.248C33.441 22.8263 33.717 22.4545 34.0774 22.1325C34.4454 21.8105 34.8939 21.5575 35.4229 21.3735C35.9595 21.1818 36.5767 21.086 37.2744 21.086C38.064 21.086 38.7809 21.2125 39.4249 21.4655C40.0689 21.7185 40.6094 22.0635 41.0464 22.5005L40.4944 23.3975ZM46.1069 21.27V33H43.6344V21.27H46.1069ZM46.5209 17.728C46.5209 17.9503 46.4749 18.1612 46.3829 18.3605C46.2986 18.5598 46.1797 18.7362 46.0264 18.8895C45.8731 19.0352 45.6929 19.154 45.4859 19.246C45.2866 19.3303 45.0719 19.3725 44.8419 19.3725C44.6196 19.3725 44.4087 19.3303 44.2094 19.246C44.0177 19.154 43.8491 19.0352 43.7034 18.8895C43.5577 18.7362 43.4389 18.5598 43.3469 18.3605C43.2626 18.1612 43.2204 17.9503 43.2204 17.728C43.2204 17.498 43.2626 17.2833 43.3469 17.084C43.4389 16.8847 43.5577 16.7122 43.7034 16.5665C43.8491 16.4132 44.0177 16.2943 44.2094 16.21C44.4087 16.118 44.6196 16.072 44.8419 16.072C45.0719 16.072 45.2866 16.118 45.4859 16.21C45.6929 16.2943 45.8731 16.4132 46.0264 16.5665C46.1797 16.7122 46.2986 16.8847 46.3829 17.084C46.4749 17.2833 46.5209 17.498 46.5209 17.728ZM57.505 23.57C57.4284 23.6697 57.3555 23.7463 57.2865 23.8C57.2175 23.8537 57.1179 23.8805 56.9875 23.8805C56.8572 23.8805 56.7192 23.8345 56.5735 23.7425C56.4355 23.6505 56.2669 23.5508 56.0675 23.4435C55.8759 23.3285 55.642 23.225 55.366 23.133C55.09 23.041 54.745 22.995 54.331 22.995C53.7944 22.995 53.3229 23.0908 52.9165 23.2825C52.5179 23.4742 52.1805 23.7502 51.9045 24.1105C51.6362 24.4632 51.433 24.8963 51.295 25.41C51.1647 25.916 51.0995 26.4872 51.0995 27.1235C51.0995 27.7828 51.1724 28.3693 51.318 28.883C51.4637 29.3967 51.6707 29.8298 51.939 30.1825C52.215 30.5352 52.5447 30.8035 52.928 30.9875C53.319 31.1715 53.756 31.2635 54.239 31.2635C54.7144 31.2635 55.1015 31.206 55.4005 31.091C55.6995 30.976 55.9487 30.8495 56.148 30.7115C56.3474 30.5735 56.516 30.447 56.654 30.332C56.7997 30.217 56.953 30.1595 57.114 30.1595C57.3134 30.1595 57.4667 30.2362 57.574 30.3895L58.2755 31.298C57.9919 31.643 57.6775 31.9343 57.3325 32.172C56.9875 32.4097 56.6234 32.6052 56.24 32.7585C55.8567 32.9042 55.458 33.0077 55.044 33.069C54.63 33.138 54.2122 33.1725 53.7905 33.1725C53.0622 33.1725 52.3799 33.0383 51.7435 32.77C51.1149 32.494 50.5629 32.0992 50.0875 31.5855C49.6199 31.0642 49.248 30.4317 48.972 29.688C48.7037 28.9367 48.5695 28.0818 48.5695 27.1235C48.5695 26.2572 48.6922 25.456 48.9375 24.72C49.1829 23.9763 49.5394 23.3362 50.007 22.7995C50.4824 22.2628 51.0689 21.845 51.7665 21.546C52.4642 21.2393 53.2692 21.086 54.1815 21.086C55.0325 21.086 55.78 21.224 56.424 21.5C57.0757 21.776 57.6545 22.167 58.1605 22.673L57.505 23.57Z" fill="#222224"/>
<rect x="93" y="18" width="7" height="15" fill="white"/>
<rect x="84" y="5" width="7" height="28" fill="#FED5FC"/>
<rect x="75" width="7" height="33" fill="#AAF4C5"/>
<rect x="66" y="13" width="7" height="20" fill="#CE1451"/>
</svg>
